{"title":"NAA MANCHI JESUS TELUGU MUSIC  &lt;a class=&quot;__cf_email__&quot; href=&quot;/cdn-cgi/l/email-protection&quot; data-cfemail=&quot;692b30171705061f0c001a05000f0c0f060c05061f0c1b1a290e04080005470a0604&quot;&gt;[email protected]&lt;/a&gt;&lt;script cf-hash='f9e31' type=&quot;text/javascript&quot;&gt;/* &lt;![CDATA[ */!function(){try{var t=&quot;currentScript&quot;in document?document.currentScript:function(){for(var t=document.getElementsByTagName(&quot;script&quot;),e=t.length;e--;)if(t[e].getAttribute(&quot;cf-hash&quot;))return t[e]}();if(t&amp;&amp;t.previousSibling){var e,r,n,i,c=t.previousSibling,a=c.getAttribute(&quot;data-cfemail&quot;);if(a){for(e=&quot;&quot;,r=parseInt(a.substr(0,2),16),n=2;a.length-n;n+=2)i=parseInt(a.substr(n,2),16)^r,e+=String.fromCharCode(i);e=document.createTextNode(e),c.parentNode.replaceChild(e,c)}}}catch(u){}}();/* ]]&gt; */&lt;/script&gt;","uid":6540002,"size":120394762,"categoryP":"audio","categoryS":"music","magnet":"?xt=urn:btih:6df1333046f559269674d372dae10ad156150f02&amp;dn=NAA+MANCHI+JESUS+TELUGU+MUSIC++BY%7E%7Eloveislifefoelovers%40gmail.com&amp;tr=udp%3A%2F%2Ftracker.openbittorrent.com%3A80&amp;tr=udp%3A%2F%2Fopen.demonii.com%3A1337&amp;tr=udp%3A%2F%2Ftracker.coppersurfer.tk%3A6969&amp;tr=udp%3A%2F%2Fexodus.desync.com%3A6969","seeders":0,"leechers":1,"uploader":"nikhilsweet","files":13,"time":1310658544,"description":"General\nComplete name : NAA MANCHI JESUS TELUGU MUSIC &lt;a class=&quot;__cf_email__&quot; href=&quot;/cdn-cgi/l/email-protection&quot; data-cfemail=&quot;9cdec5e2e2f0f3eaf9f5eff0f5faf9faf3f9f0f3eaf9eeefdcfbf1fdf5f0b2fff3f1&quot;&gt;[email&amp;#160;protected]&lt;/a&gt;&lt;script cf-hash='f9e31' type=&quot;text/javascript&quot;&gt;\n/* &lt;![CDATA[ */!function(){try{var t=&quot;currentScript&quot;in document?document.currentScript:function(){for(var t=document.getElementsByTagName(&quot;script&quot;),e=t.length;e--;)if(t[e].getAttribute(&quot;cf-hash&quot;))return t[e]}();if(t&amp;&amp;t.previousSibling){var e,r,n,i,c=t.previousSibling,a=c.getAttribute(&quot;data-cfemail&quot;);if(a){for(e=&quot;&quot;,r=parseInt(a.substr(0,2),16),n=2;a.length-n;n+=2)i=parseInt(a.substr(n,2),16)^r,e+=String.fromCharCode(i);e=document.createTextNode(e),c.parentNode.replaceChild(e,c)}}}catch(u){}}();/* ]]&gt; */&lt;/script&gt;~~NIKHIL\n\n\nFile size : 23.3 KiB\n\nGeneral\nComplete name : NAA MANCHI JESUS TELUGU MUSIC &lt;a class=&quot;__cf_email__&quot; href=&quot;/cdn-cgi/l/email-protection&quot; data-cfemail=&quot;7c3e25020210130a19150f10151a191a131910130a190e0f3c1b111d1510521f1311&quot;&gt;[email&amp;#160;protected]&lt;/a&gt;&lt;script cf-hash='f9e31' type=&quot;text/javascript&quot;&gt;\n/* &lt;![CDATA[ */!function(){try{var t=&quot;currentScript&quot;in document?document.currentScript:function(){for(var t=document.getElementsByTagName(&quot;script&quot;),e=t.length;e--;)if(t[e].getAttribute(&quot;cf-hash&quot;))return t[e]}();if(t&amp;&amp;t.previousSibling){var e,r,n,i,c=t.previousSibling,a=c.getAttribute(&quot;data-cfemail&quot;);if(a){for(e=&quot;&quot;,r=parseInt(a.substr(0,2),16),n=2;a.length-n;n+=2)i=parseInt(a.substr(n,2),16)^r,e+=String.fromCharCode(i);e=document.createTextNode(e),c.parentNode.replaceChild(e,c)}}}catch(u){}}();/* ]]&gt; */&lt;/script&gt;~~NIKHILNew Artist - Album Name - Title 01.mp3\nFormat : MPEG Audio\nFile size : 1.84 MiB\nDuration : 48s 65ms\nOverall bit rate : 320 Kbps\nAlbum : Album Name\nTrack name : Title 01\nTrack name/Position : 01\nPerformer : New Artist\nWriting library : LAME3.98a\nComment : Audio CD Ripper Plus 2.0\n\nAudio\nFormat : MPEG Audio\nFormat version : Version 1\nFormat profile : Layer 3\nMode : Joint stereo\nDuration : 48s 117ms\nBit rate mode : Constant\nBit rate : 320 Kbps\nChannel(s) : 2 channels\nSampling rate : 44.1 KHz\nCompression mode : Lossy\nStream size : 1.83 MiB (100%)\nWriting library : LAME3.98a\nEncoding settings : -m j -V 4 -q 3 -lowpass 20.5\n\nGeneral\nComplete name : NAA MANCHI JESUS TELUGU MUSIC &lt;a class=&quot;__cf_email__&quot; href=&quot;/cdn-cgi/l/email-protection&quot; data-cfemail=&quot;a1e3f8dfdfcdced7c4c8d2cdc8c7c4c7cec4cdced7c4d3d2e1c6ccc0c8cd8fc2cecc&quot;&gt;[email&amp;#160;protected]&lt;/a&gt;&lt;script cf-hash='f9e31' type=&quot;text/javascript&quot;&gt;\n/* &lt;![CDATA[ */!function(){try{var t=&quot;currentScript&quot;in document?document.currentScript:function(){for(var t=document.getElementsByTagName(&quot;script&quot;),e=t.length;e--;)if(t[e].getAttribute(&quot;cf-hash&quot;))return t[e]}();if(t&amp;&amp;t.previousSibling){var e,r,n,i,c=t.previousSibling,a=c.getAttribute(&quot;data-cfemail&quot;);if(a){for(e=&quot;&quot;,r=parseInt(a.substr(0,2),16),n=2;a.length-n;n+=2)i=parseInt(a.substr(n,2),16)^r,e+=String.fromCharCode(i);e=document.createTextNode(e),c.parentNode.replaceChild(e,c)}}}catch(u){}}();/* ]]&gt; */&lt;/script&gt;~~NIKHILNew Artist - Album Name - Title 02.mp3\nFormat : MPEG Audio\nFile size : 16.5 MiB\nDuration : 7mn 13s\nOverall bit rate : 320 Kbps\nAlbum : Album Name\nTrack name : Title 02\nTrack name/Position : 02\nPerformer : New Artist\nWriting library : LAME3.98a\nComment : Audio CD Ripper Plus 2.0\n\nAudio\nFormat : MPEG Audio\nFormat version : Version 1\nFormat profile : Layer 3\nMode : Joint stereo\nMode extension : MS Stereo\nDuration : 7mn 13s\nBit rate mode : Constant\nBit rate : 320 Kbps\nChannel(s) : 2 channels\nSampling rate : 44.1 KHz\nCompression mode : Lossy\nStream size : 16.5 MiB (100%)\nWriting library : LAME3.98a\nEncoding settings : -m j -V 4 -q 3 -lowpass 20.5\n\nGeneral\nComplete name : NAA MANCHI JESUS TELUGU MUSIC &lt;a class=&quot;__cf_email__&quot; href=&quot;/cdn-cgi/l/email-protection&quot; data-cfemail=&quot;7d3f24030311120b18140e11141b181b121811120b180f0e3d1a101c1411531e1210&quot;&gt;[email&amp;#160;protected]&lt;/a&gt;&lt;script cf-hash='f9e31' type=&quot;text/javascript&quot;&gt;\n/* &lt;![CDATA[ */!function(){try{var t=&quot;currentScript&quot;in document?document.currentScript:function(){for(var t=document.getElementsByTagName(&quot;script&quot;),e=t.length;e--;)if(t[e].getAttribute(&quot;cf-hash&quot;))return t[e]}();if(t&amp;&amp;t.previousSibling){var e,r,n,i,c=t.previousSibling,a=c.getAttribute(&quot;data-cfemail&quot;);if(a){for(e=&quot;&quot;,r=parseInt(a.substr(0,2),16),n=2;a.length-n;n+=2)i=parseInt(a.substr(n,2),16)^r,e+=String.fromCharCode(i);e=document.createTextNode(e),c.parentNode.replaceChild(e,c)}}}catch(u){}}();/* ]]&gt; */&lt;/script&gt;~~NIKHILNew Artist - Album Name - Title 03.mp3\nFormat : MPEG Audio\nFile size : 12.2 MiB\nDuration : 5mn 19s\nOverall bit rate : 320 Kbps\nAlbum : Album Name\nTrack name : Title 03\nTrack name/Position : 03\nPerformer : New Artist\nWriting library : LAME3.98a\nComment : Audio CD Ripper Plus 2.0\n\nAudio\nFormat : MPEG Audio\nFormat version : Version 1\nFormat profile : Layer 3\nMode : Joint stereo\nDuration : 5mn 19s\nBit rate mode : Constant\nBit rate : 320 Kbps\nChannel(s) : 2 channels\nSampling rate : 44.1 KHz\nCompression mode : Lossy\nStream size : 12.2 MiB (100%)\nWriting library : LAME3.98a\nEncoding settings : -m j -V 4 -q 3 -lowpass 20.5\n\n\n\nGeneral\nComplete name : NAA MANCHI JESUS TELUGU MUSIC &lt;a class=&quot;__cf_email__&quot; href=&quot;/cdn-cgi/l/email-protection&quot; data-cfemail=&quot;82c0dbfcfceeedf4e7ebf1eeebe4e7e4ede7eeedf4e7f0f1c2e5efe3ebeeace1edef&quot;&gt;[email&amp;#160;protected]&lt;/a&gt;&lt;script cf-hash='f9e31' type=&quot;text/javascript&quot;&gt;\n/* &lt;![CDATA[ */!function(){try{var t=&quot;currentScript&quot;in document?document.currentScript:function(){for(var t=document.getElementsByTagName(&quot;script&quot;),e=t.length;e--;)if(t[e].getAttribute(&quot;cf-hash&quot;))return t[e]}();if(t&amp;&amp;t.previousSibling){var e,r,n,i,c=t.previousSibling,a=c.getAttribute(&quot;data-cfemail&quot;);if(a){for(e=&quot;&quot;,r=parseInt(a.substr(0,2),16),n=2;a.length-n;n+=2)i=parseInt(a.substr(n,2),16)^r,e+=String.fromCharCode(i);e=document.createTextNode(e),c.parentNode.replaceChild(e,c)}}}catch(u){}}();/* ]]&gt; */&lt;/script&gt;~~NIKHILNew Artist - Album Name - Title 04.mp3\nFormat : MPEG Audio\nFile size : 17.1 MiB\nDuration : 7mn 28s\nOverall bit rate : 320 Kbps\nAlbum : Album Name\nTrack name : Title 04\nTrack name/Position : 04\nPerformer : New Artist\nWriting library : LAME3.98a\nComment : Audio CD Ripper Plus 2.0\n\nAudio\nFormat : MPEG Audio\nFormat version : Version 1\nFormat profile : Layer 3\nMode : Joint stereo\nDuration : 7mn 28s\nBit rate mode : Constant\nBit rate : 320 Kbps\nChannel(s) : 2 channels\nSampling rate : 44.1 KHz\nCompression mode : Lossy\nStream size : 17.1 MiB (100%)\nWriting library : LAME3.98a\nEncoding settings : -m j -V 4 -q 3 -lowpass 20.5\n\nGeneral\nComplete name : NAA MANCHI JESUS TELUGU MUSIC &lt;a class=&quot;__cf_email__&quot; href=&quot;/cdn-cgi/l/email-protection&quot; data-cfemail=&quot;c18398bfbfadaeb7a4a8b2ada8a7a4a7aea4adaeb7a4b3b281a6aca0a8adefa2aeac&quot;&gt;[email&amp;#160;protected]&lt;/a&gt;&lt;script cf-hash='f9e31' type=&quot;text/javascript&quot;&gt;\n/* &lt;![CDATA[ */!function(){try{var t=&quot;currentScript&quot;in document?document.currentScript:function(){for(var t=document.getElementsByTagName(&quot;script&quot;),e=t.length;e--;)if(t[e].getAttribute(&quot;cf-hash&quot;))return t[e]}();if(t&amp;&amp;t.previousSibling){var e,r,n,i,c=t.previousSibling,a=c.getAttribute(&quot;data-cfemail&quot;);if(a){for(e=&quot;&quot;,r=parseInt(a.substr(0,2),16),n=2;a.length-n;n+=2)i=parseInt(a.substr(n,2),16)^r,e+=String.fromCharCode(i);e=document.createTextNode(e),c.parentNode.replaceChild(e,c)}}}catch(u){}}();/* ]]&gt; */&lt;/script&gt;~~NIKHILNew Artist - Album Name - Title 05.mp3\nFormat : MPEG Audio\nFile size : 12.8 MiB\nDuration : 5mn 36s\nOverall bit rate : 320 Kbps\nAlbum : Album Name\nTrack name : Title 05\nTrack name/Position : 05\nPerformer : New Artist\nWriting library : LAME3.98a\nComment : Audio CD Ripper Plus 2.0\n\nAudio\nFormat : MPEG Audio\nFormat version : Version 1\nFormat profile : Layer 3\nMode : Joint stereo\nDuration : 5mn 36s\nBit rate mode : Constant\nBit rate : 320 Kbps\nChannel(s) : 2 channels\nSampling rate : 44.1 KHz\nCompression mode : Lossy\nStream size : 12.8 MiB (100%)\nWriting library : LAME3.98a\nEncoding settings : -m j -V 4 -q 3 -lowpass 20.5\n\nGeneral\nComplete name : NAA MANCHI JESUS TELUGU MUSIC &lt;a class=&quot;__cf_email__&quot; href=&quot;/cdn-cgi/l/email-protection&quot; data-cfemail=&quot;a4e6fddadac8cbd2c1cdd7c8cdc2c1c2cbc1c8cbd2c1d6d7e4c3c9c5cdc88ac7cbc9&quot;&gt;[email&amp;#160;protected]&lt;/a&gt;&lt;script cf-hash='f9e31' type=&quot;text/javascript&quot;&gt;\n/* &lt;![CDATA[ */!function(){try{var t=&quot;currentScript&quot;in document?document.currentScript:function(){for(var t=document.getElementsByTagName(&quot;script&quot;),e=t.length;e--;)if(t[e].getAttribute(&quot;cf-hash&quot;))return t[e]}();if(t&amp;&amp;t.previousSibling){var e,r,n,i,c=t.previousSibling,a=c.getAttribute(&quot;data-cfemail&quot;);if(a){for(e=&quot;&quot;,r=parseInt(a.substr(0,2),16),n=2;a.length-n;n+=2)i=parseInt(a.substr(n,2),16)^r,e+=String.fromCharCode(i);e=document.createTextNode(e),c.parentNode.replaceChild(e,c)}}}catch(u){}}();/* ]]&gt; */&lt;/script&gt;~~NIKHILNew Artist - Album Name - Title 06.mp3\nFormat : MPEG Audio\nFile size : 16.0 MiB\nDuration : 7mn 0s\nOverall bit rate : 320 Kbps\nAlbum : Album Name\nTrack name : Title 06\nTrack name/Position : 06\nPerformer : New Artist\nWriting library : LAME3.98a\nComment : Audio CD Ripper Plus 2.0\n\nAudio\nFormat : MPEG Audio\nFormat version : Version 1\nFormat profile : Layer 3\nMode : Joint stereo\nDuration : 7mn 0s\nBit rate mode : Constant\nBit rate : 320 Kbps\nChannel(s) : 2 channels\nSampling rate : 44.1 KHz\nCompression mode : Lossy\nStream size : 16.0 MiB (100%)\nWriting library : LAME3.98a\nEncoding settings : -m j -V 4 -q 3 -lowpass 20.5\n\nGeneral\nComplete name : NAA MANCHI JESUS TELUGU MUSIC &lt;a class=&quot;__cf_email__&quot; href=&quot;/cdn-cgi/l/email-protection&quot; data-cfemail=&quot;67253e19190b0811020e140b0e01020108020b081102151427000a060e0b4904080a&quot;&gt;[email&amp;#160;protected]&lt;/a&gt;&lt;script cf-hash='f9e31' type=&quot;text/javascript&quot;&gt;\n/* &lt;![CDATA[ */!function(){try{var t=&quot;currentScript&quot;in document?document.currentScript:function(){for(var t=document.getElementsByTagName(&quot;script&quot;),e=t.length;e--;)if(t[e].getAttribute(&quot;cf-hash&quot;))return t[e]}();if(t&amp;&amp;t.previousSibling){var e,r,n,i,c=t.previousSibling,a=c.getAttribute(&quot;data-cfemail&quot;);if(a){for(e=&quot;&quot;,r=parseInt(a.substr(0,2),16),n=2;a.length-n;n+=2)i=parseInt(a.substr(n,2),16)^r,e+=String.fromCharCode(i);e=document.createTextNode(e),c.parentNode.replaceChild(e,c)}}}catch(u){}}();/* ]]&gt; */&lt;/script&gt;~~NIKHILNew Artist - Album Name - Title 07.mp3\nFormat : MPEG Audio\nFile size : 14.4 MiB\nDuration : 6mn 17s\nOverall bit rate : 320 Kbps\nAlbum : Album Name\nTrack name : Title 07\nTrack name/Position : 07\nPerformer : New Artist\nWriting library : LAME3.98a\nComment : Audio CD Ripper Plus 2.0\n\nAudio\nFormat : MPEG Audio\nFormat version : Version 1\nFormat profile : Layer 3\nMode : Joint stereo\nDuration : 6mn 17s\nBit rate mode : Constant\nBit rate : 320 Kbps\nChannel(s) : 2 channels\nSampling rate : 44.1 KHz\nCompression mode : Lossy\nStream size : 14.4 MiB (100%)\nWriting library : LAME3.98a\nEncoding settings : -m j -V 4 -q 3 -lowpass 20.5\n\nGeneral\nComplete name : NAA MANCHI JESUS TELUGU MUSIC &lt;a class=&quot;__cf_email__&quot; href=&quot;/cdn-cgi/l/email-protection&quot; data-cfemail=&quot;7e3c2700001211081b170d1217181b18111b1211081b0c0d3e19131f1712501d1113&quot;&gt;[email&amp;#160;protected]&lt;/a&gt;&lt;script cf-hash='f9e31' type=&quot;text/javascript&quot;&gt;\n/* &lt;![CDATA[ */!function(){try{var t=&quot;currentScript&quot;in document?document.currentScript:function(){for(var t=document.getElementsByTagName(&quot;script&quot;),e=t.length;e--;)if(t[e].getAttribute(&quot;cf-hash&quot;))return t[e]}();if(t&amp;&amp;t.previousSibling){var e,r,n,i,c=t.previousSibling,a=c.getAttribute(&quot;data-cfemail&quot;);if(a){for(e=&quot;&quot;,r=parseInt(a.substr(0,2),16),n=2;a.length-n;n+=2)i=parseInt(a.substr(n,2),16)^r,e+=String.fromCharCode(i);e=document.createTextNode(e),c.parentNode.replaceChild(e,c)}}}catch(u){}}();/* ]]&gt; */&lt;/script&gt;~~NIKHILNew Artist - Album Name - Title 08.mp3\nFormat : MPEG Audio\nFile size : 10.4 MiB\nDuration : 4mn 33s\nOverall bit rate : 320 Kbps\nAlbum : Album Name\nTrack name : Title 08\nTrack name/Position : 08\nPerformer : New Artist\nWriting library : LAME3.98a\nComment : Audio CD Ripper Plus 2.0\n\nAudio\nFormat : MPEG Audio\nFormat version : Version 1\nFormat profile : Layer 3\nMode : Joint stereo\nDuration : 4mn 33s\nBit rate mode : Constant\nBit rate : 320 Kbps\nChannel(s) : 2 channels\nSampling rate : 44.1 KHz\nCompression mode : Lossy\nStream size : 10.4 MiB (100%)\nWriting library : LAME3.98a\nEncoding settings : -m j -V 4 -q 3 -lowpass 20.5\n\nGeneral\nComplete name : NAA MANCHI JESUS TELUGU MUSIC &lt;a class=&quot;__cf_email__&quot; href=&quot;/cdn-cgi/l/email-protection&quot; data-cfemail=&quot;f8baa1868694978e9d918b94919e9d9e979d94978e9d8a8bb89f95999194d69b9795&quot;&gt;[email&amp;#160;protected]&lt;/a&gt;&lt;script cf-hash='f9e31' type=&quot;text/javascript&quot;&gt;\n/* &lt;![CDATA[ */!function(){try{var t=&quot;currentScript&quot;in document?document.currentScript:function(){for(var t=document.getElementsByTagName(&quot;script&quot;),e=t.length;e--;)if(t[e].getAttribute(&quot;cf-hash&quot;))return t[e]}();if(t&amp;&amp;t.previousSibling){var e,r,n,i,c=t.previousSibling,a=c.getAttribute(&quot;data-cfemail&quot;);if(a){for(e=&quot;&quot;,r=parseInt(a.substr(0,2),16),n=2;a.length-n;n+=2)i=parseInt(a.substr(n,2),16)^r,e+=String.fromCharCode(i);e=document.createTextNode(e),c.parentNode.replaceChild(e,c)}}}catch(u){}}();/* ]]&gt; */&lt;/script&gt;~~NIKHILNew Artist - Album Name - Title 09.mp3\nFormat : MPEG Audio\nFile size : 11.5 MiB\nDuration : 5mn 2s\nOverall bit rate : 320 Kbps\nAlbum : Album Name\nTrack name : Title 09\nTrack name/Position : 09\nPerformer : New Artist\nWriting library : LAME3.98a\nComment : Audio CD Ripper Plus 2.0\n\nAudio\nFormat : MPEG Audio\nFormat version : Version 1\nFormat profile : Layer 3\nMode : Joint stereo\nDuration : 5mn 2s\nBit rate mode : Constant\nBit rate : 320 Kbps\nChannel(s) : 2 channels\nSampling rate : 44.1 KHz\nCompression mode : Lossy\nStream size : 11.5 MiB (100%)\nWriting library : LAME3.98a\nEncoding settings : -m j -V 4 -q 3 -lowpass 20.5\n\nGeneral\nComplete name : NAA MANCHI JESUS TELUGU MUSIC &lt;a class=&quot;__cf_email__&quot; href=&quot;/cdn-cgi/l/email-protection&quot; data-cfemail=&quot;93d1caededfffce5f6fae0fffaf5f6f5fcf6fffce5f6e1e0d3f4fef2faffbdf0fcfe&quot;&gt;[email&amp;#160;protected]&lt;/a&gt;&lt;script cf-hash='f9e31' type=&quot;text/javascript&quot;&gt;\n/* &lt;![CDATA[ */!function(){try{var t=&quot;currentScript&quot;in document?document.currentScript:function(){for(var t=document.getElementsByTagName(&quot;script&quot;),e=t.length;e--;)if(t[e].getAttribute(&quot;cf-hash&quot;))return t[e]}();if(t&amp;&amp;t.previousSibling){var e,r,n,i,c=t.previousSibling,a=c.getAttribute(&quot;data-cfemail&quot;);if(a){for(e=&quot;&quot;,r=parseInt(a.substr(0,2),16),n=2;a.length-n;n+=2)i=parseInt(a.substr(n,2),16)^r,e+=String.fromCharCode(i);e=document.createTextNode(e),c.parentNode.replaceChild(e,c)}}}catch(u){}}();/* ]]&gt; */&lt;/script&gt;~~NIKHILPicture 001.jpg\nFormat : JPEG\nFile size : 691 KiB\n\nImage\nFormat : JPEG\nWidth : 1 024 pixels\nHeight : 1 296 pixels\nChroma subsampling : 4:2:0\nBit depth : 8 bits\nCompression mode : Lossy\n\nGeneral\nComplete name : NAA MANCHI JESUS TELUGU MUSIC &lt;a class=&quot;__cf_email__&quot; href=&quot;/cdn-cgi/l/email-protection&quot; data-cfemail=&quot;682a31161604071e0d011b04010e0d0e070d04071e0d1a1b280f05090104460b0705&quot;&gt;[email&amp;#160;protected]&lt;/a&gt;&lt;script cf-hash='f9e31' type=&quot;text/javascript&quot;&gt;\n/* &lt;![CDATA[ */!function(){try{var t=&quot;currentScript&quot;in document?document.currentScript:function(){for(var t=document.getElementsByTagName(&quot;script&quot;),e=t.length;e--;)if(t[e].getAttribute(&quot;cf-hash&quot;))return t[e]}();if(t&amp;&amp;t.previousSibling){var e,r,n,i,c=t.previousSibling,a=c.getAttribute(&quot;data-cfemail&quot;);if(a){for(e=&quot;&quot;,r=parseInt(a.substr(0,2),16),n=2;a.length-n;n+=2)i=parseInt(a.substr(n,2),16)^r,e+=String.fromCharCode(i);e=document.createTextNode(e),c.parentNode.replaceChild(e,c)}}}catch(u){}}();/* ]]&gt; */&lt;/script&gt;~~NIKHILPicture 002.jpg\nFormat : JPEG\nFile size : 542 KiB\n\nImage\nFormat : JPEG\nWidth : 1 024 pixels\nHeight : 1 040 pixels\nChroma subsampling : 4:2:0\nBit depth : 8 bits\nCompression mode : Lossy\n\nGeneral\nComplete name : NAA MANCHI JESUS TELUGU MUSIC &lt;a class=&quot;__cf_email__&quot; href=&quot;/cdn-cgi/l/email-protection&quot; data-cfemail=&quot;85c7dcfbfbe9eaf3e0ecf6e9ece3e0e3eae0e9eaf3e0f7f6c5e2e8e4ece9abe6eae8&quot;&gt;[email&amp;#160;protected]&lt;/a&gt;&lt;script cf-hash='f9e31' type=&quot;text/javascript&quot;&gt;\n/* &lt;![CDATA[ */!function(){try{var t=&quot;currentScript&quot;in document?document.currentScript:function(){for(var t=document.getElementsByTagName(&quot;script&quot;),e=t.length;e--;)if(t[e].getAttribute(&quot;cf-hash&quot;))return t[e]}();if(t&amp;&amp;t.previousSibling){var e,r,n,i,c=t.previousSibling,a=c.getAttribute(&quot;data-cfemail&quot;);if(a){for(e=&quot;&quot;,r=parseInt(a.substr(0,2),16),n=2;a.length-n;n+=2)i=parseInt(a.substr(n,2),16)^r,e+=String.fromCharCode(i);e=document.createTextNode(e),c.parentNode.replaceChild(e,c)}}}catch(u){}}();/* ]]&gt; */&lt;/script&gt;~~NIKHILPicture 003.jpg\nFormat : JPEG\nFile size : 702 KiB\n\nImage\nFormat : JPEG\nWidth : 976 pixels\nHeight : 944 pixels\nChroma subsampling : 4:2:0\nBit depth : 8 bits\nCompression mode : Lossy\n\nscreen:--\n\n[img]http://i894.photobucket.com/albums/ac145/nikhilsweet/Picture001-1.jpg[/img]\n\n[img]http://i894.photobucket.com/albums/ac145/nikhilsweet/th_Picture002.jpg[/img]\n\n[img]http://i894.photobucket.com/albums/ac145/nikhilsweet/th_Picture003.jpg[/img]\n\n\npls forward ur comment for the further posing as such ones....\n\nTHIS TORRENT IS BROUGHT TO U BY\n\n[img]http://i894.photobucket.com/albums/ac145/nikhilsweet/cooltext432403806.png[/img]","torrent":{"xt":"urn:btih:6df1333046f559269674d372dae10ad156150f02","amp;dn":"NAA+MANCHI+JESUS+TELUGU+MUSIC++BY%7E%7Eloveislifefoelovers%40gmail.com","amp;tr":["udp%3A%2F%2Ftracker.openbittorrent.com%3A80","udp%3A%2F%2Fopen.demonii.com%3A1337","udp%3A%2F%2Ftracker.coppersurfer.tk%3A6969","udp%3A%2F%2Fexodus.desync.com%3A6969"],"infoHash":"6df1333046f559269674d372dae10ad156150f02","infoHashBuffer":{"type":"Buffer","data":[109,241,51,48,70,245,89,38,150,116,211,114,218,225,10,209,86,21,15,2]},"announce":[],"urlList":[]}}